<?xml version="1.0" encoding="utf-8"?>
<!-- Generator: Adobe Illustrator 22.0.0, SVG Export Plug-In . SVG Version: 6.00 Build 0)  -->
<svg version="1.1" xmlns="http://www.w3.org/2000/svg" xmlns:xlink="http://www.w3.org/1999/xlink" x="0px" y="0px"
	 viewBox="0 0 512 512" style="enable-background:new 0 0 512 512;" xml:space="preserve">
<style type="text/css">
	.st0{fill:#E1902B;}
	.st1{fill:#3D2A3D;}
	.st2{fill:#E7AD84;}
	.st3{fill:#2961A5;}
	.st4{fill:#FFD66C;}
	.st5{fill:#A18FA1;}
	.st6{fill:#DB4646;}
	.st7{fill:#78BEDE;}
	.st8{fill:#43B06D;}
	.st9{fill:#9EC853;}
	.st10{fill:#217D44;}
	.st11{fill:#DBDBDB;}
	.st12{fill:#FFFFFF;}
	.st13{fill:#C41E1E;}
	.st14{fill:#B9BDC2;}
	.st15{fill:#856685;}
	.st16{fill:#E8E8E8;}
	.st17{fill:#BDBDBD;}
	.st18{fill:#839797;}
	.st19{fill:#D9D9D9;}
	.st20{fill:#F0F0F0;}
	.st21{fill:#BFBFBF;}
	.st22{fill:#706470;}
	.st23{fill:#4B1E4C;}
	.st24{fill:#614F61;}
	.st25{fill:#A37352;}
	.st26{fill:#7A6C7A;}
	.st27{fill:#919191;}
	.st28{fill:#6E6E6E;}
	.st29{fill:#B8B8B8;}
	.st30{fill:#FF826E;}
	.st31{fill:#7D5737;}
	.st32{fill:#2E1B17;}
	.st33{fill:#483324;}
	.st34{fill:#9E9E9E;}
	.st35{fill:#7D6F7D;}
	.st36{fill:#6B4A6B;}
	.st37{fill:#4A80C2;}
	.st38{fill:#B34B0F;}
	.st39{fill:#FFC682;}
	.st40{clip-path:url(#SVGID_2_);fill:#DBDBDB;}
	.st41{fill:#FFDBC5;}
	.st42{fill:#E3E3E3;}
	.st43{clip-path:url(#SVGID_4_);}
	.st44{clip-path:url(#SVGID_6_);fill:#DBDBDB;}
	.st45{clip-path:url(#SVGID_8_);}
	.st46{fill:#E8B494;}
	.st47{fill:#F2D7C4;}
	.st48{fill:#5D5660;}
	.st49{fill:#3B2D3F;}
	.st50{fill:#756275;}
	.st51{fill:#E1622B;}
	.st52{fill:#F0E9E9;}
	.st53{fill:#4D917B;}
	.st54{fill:#C4C4C4;}
	.st55{fill:#14855A;}
	.st56{fill:#C21B1B;}
</style>
<g id="Layer_9">
	<path class="st4" d="M512,256c0,141.4-114.6,256-256,256C114.6,512,0,397.4,0,256C0,114.6,114.6,0,256,0C397.4,0,512,114.6,512,256
		z"/>
</g>
<g id="Layer_7">
	<g>
		<g>
			<path class="st1" d="M214.2,157.2L100,243.9c-16.2,20.8-16.1,48.5,0.2,61.8l2.1,1.8c16.3,13.3,42.6,7.3,58.8-13.6l57.1-133.4
				L214.2,157.2z"/>
			<path class="st1" d="M295.7,157.2l114.2,86.7c16.2,20.8,16.1,48.5-0.2,61.8l-2.1,1.8c-16.3,13.3-42.6,7.3-58.8-13.6l-57.1-133.4
				L295.7,157.2z"/>
		</g>
		<path class="st25" d="M234.9,144c-16.4,0-34.3,13.8-39.7,30.9l-29.6,93.9c-5.4,17.1,3.6,31.2,20.1,31.2h138.6
			c16.4,0,25.5-14.2,20.1-31.3L314.7,175c-5.4-17.1-23.3-31-39.7-31H234.9z"/>
		<path class="st25" d="M348.5,292.5c0,39-41.9,70.5-93.5,70.5c-51.6,0-93.5-31.6-93.5-70.5c0-39,41.9-70.5,93.5-70.5
			C306.6,221.9,348.5,253.5,348.5,292.5z"/>
		<g>
			<path class="st1" d="M230.4,232.4c0,6.3-5.1,11.5-11.5,11.5c-6.3,0-11.5-5.1-11.5-11.5c0-6.3,5.1-11.5,11.5-11.5
				C225.3,220.9,230.4,226,230.4,232.4z"/>
			<path class="st1" d="M302.5,232.4c0,6.3-5.1,11.5-11.5,11.5c-6.3,0-11.5-5.1-11.5-11.5c0-6.3,5.1-11.5,11.5-11.5
				C297.4,220.9,302.5,226,302.5,232.4z"/>
		</g>
		<path class="st12" d="M310,313c0,16-13,29-29,29h-52c-16,0-29-13-29-29l0,0c0-16,13-29,29-29h52C297,284,310,297,310,313L310,313z
			"/>
		<path class="st12" d="M293.2,287.1c0,17-17.1,30.8-38.2,30.8c-21.1,0-38.2-13.8-38.2-30.8c0-17,17.1-30.8,38.2-30.8
			C276.1,256.3,293.2,270.1,293.2,287.1z"/>
		<g>
			<path class="st1" d="M288.2,263.7c0,9.4-33.2,27.3-33.2,27.3s-33.2-18-33.2-27.3c0-9.4,14.9-11.7,33.2-11.7
				C273.3,252,288.2,254.3,288.2,263.7z"/>
			<path class="st1" d="M262,316.7c0,3.5-2.8,6.3-6.3,6.3h-0.4c-3.5,0-6.3-2.8-6.3-6.3v-33.4c0-3.5,2.8-6.3,6.3-6.3h0.4
				c3.5,0,6.3,2.8,6.3,6.3V316.7z"/>
		</g>
		<g>
			<path class="st1" d="M276.1,313.7c-0.3,11.1-9.4,19.7-21.1,19.9c-11.7,0.3-20.8-9.3-21.1-19.9c-0.2-6.9-11.5-6.9-11.3,0
				c0.4,16.9,14.5,30.2,32.4,30.6c17.9,0.4,32-14.3,32.4-30.6C287.5,306.8,276.2,306.8,276.1,313.7L276.1,313.7z"/>
		</g>
	</g>
</g>
</svg>
